<?xml version="1.0" standalone="no"?>
<!DOCTYPE svg PUBLIC "-//W3C//DTD SVG 1.1//EN" "http://www.w3.org/Graphics/SVG/1.1/DTD/svg11.dtd" >
<svg xmlns="http://www.w3.org/2000/svg" xmlns:xlink="http://www.w3.org/1999/xlink" version="1.1">
<metadata></metadata>
<defs>
<font id="tvps_vain_capitalregular" horiz-adv-x="1439" >
<font-face units-per-em="2048" ascent="1638" descent="-410" />
<missing-glyph horiz-adv-x="819" />
<glyph horiz-adv-x="0" />
<glyph horiz-adv-x="682" />
<glyph horiz-adv-x="0" />
<glyph horiz-adv-x="0" />
<glyph unicode="&#xd;" horiz-adv-x="0" />
<glyph unicode=" "  horiz-adv-x="819" />
<glyph unicode="&#x09;" horiz-adv-x="819" />
<glyph unicode="&#xa0;" horiz-adv-x="819" />
<glyph unicode="!" horiz-adv-x="520" d="M82 1382q-2 27 16.5 46.5t44.5 19.5h234q27 0 45 -19.5t16 -46.5l-49 -868q-2 -25 -19.5 -41t-41.5 -16h-133q-25 0 -42.5 16t-19.5 41zM106 57v193q0 23 17.5 40t40.5 17h192q23 0 40.5 -17.5t17.5 -39.5v-193q0 -23 -17.5 -40t-40.5 -17h-192q-23 0 -40.5 17.5 t-17.5 39.5z" />
<glyph unicode="&#x22;" horiz-adv-x="778" d="M82 1415v236q0 23 17.5 40t39.5 17h164v-2q23 0 40 -17.5t17 -39.5v-234q0 -16 -6 -29l-69 -163q-20 -37 -64 -37q-43 0 -63 37l-70 163q-6 12 -6 29zM418 1413v236q0 23 17.5 40t39.5 17h164v-2q23 0 40 -17.5t17 -39.5v-234q0 -16 -6 -29l-69 -163q-20 -37 -64 -37 q-43 0 -63 37l-70 163q-6 12 -6 29z" />
<glyph unicode="#" horiz-adv-x="1363" d="M57 422l39 119q6 20 31 20h195l120 375h-174q-16 0 -24 12.5t-4 28.5l39 119q6 20 30 20h195l102 318q6 20 31 20h125q16 0 24.5 -12t4.5 -29l-97 -297h230l102 318q6 20 31 20h125q16 0 24 -12t4 -29l-96 -297h154v-4q16 0 24 -12.5t4 -28.5l-39 -119q-6 -20 -30 -20 h-174l-121 -375h153q16 0 24.5 -12.5t4.5 -28.5l-39 -119q-6 -20 -31 -20h-174l-122 -381q-6 -20 -31 -21h-125q-16 0 -24.5 12.5t-4.5 28.5l117 363h-229l-123 -381q-6 -20 -31 -21h-125q-16 0 -24.5 12.5t-4.5 28.5l117 363h-174q-16 0 -24.5 12.5t-4.5 28.5zM514 557h229 l121 375h-229z" />
<glyph unicode="$" horiz-adv-x="1277" d="M78 977q0 59 15.5 106t37 83t44 58.5t36.5 32.5q37 31 80 50.5t85 33t82 19.5t72 10v137q0 12 9.5 21.5t21.5 9.5h127q12 0 21.5 -9t9.5 -22v-139q188 -18 296.5 -89t149.5 -163q8 -23 25 -61q10 -25 -1 -48.5t-36 -33.5l-139 -53q-23 -10 -45.5 0t-32.5 32 q-8 16 -13 28.5t-10 18.5q-18 31 -55 56q-12 8 -47 22.5t-88 24.5v-238l90 -16v6q174 -29 278.5 -135.5t104.5 -272.5q0 -59 -15.5 -107t-37 -84t-44 -59.5t-36.5 -33.5q-41 -33 -87 -53.5t-91 -34t-87 -19.5t-75 -8v-129q0 -12 -9 -21.5t-22 -9.5h-127q-12 0 -21 9.5 t-9 21.5v133q-180 23 -284 93.5t-142 162.5q-10 20 -25 62q-10 25 1 48t36 34l139 53q23 10 45.5 0t32.5 -33q8 -16 13 -28.5t9 -18.5q18 -31 56 -55q10 -8 39.5 -21.5t76.5 -23.5v272l-67 12q-170 31 -264 117q-53 49 -88 111.5t-35 140.5zM360 999q0 -18 9.5 -29.5 t19.5 -19.5h2q27 -18 68 -29.5t76 -17.5v209q-31 -4 -62 -12t-55.5 -21.5t-41 -33t-16.5 -46.5zM723 317v2q31 2 64.5 10.5t63.5 22t48.5 35t18.5 49.5q0 29 -17.5 50.5t-45.5 37t-62.5 26.5t-69.5 17v-250z" />
<glyph unicode="%" horiz-adv-x="1486" d="M61 1108v2q0 63 25 119.5t68 98.5t100 65.5t125 23.5t125 -23.5t100 -64.5t66.5 -96t23.5 -121v-2q0 -66 -24.5 -121t-67.5 -97t-100.5 -65.5t-124.5 -23.5q-68 0 -125 23.5t-100 64.5t-67 96t-24 121zM225 1108q0 -66 42 -109t108 -43t107.5 43t41.5 109v2q0 66 -42 111 t-105 45t-105.5 -44t-42.5 -110v-2zM336 39l641 1360q6 20 29 20h120q16 0 23.5 -12t1.5 -27l-641 -1360q-6 -20 -29 -20h-121q-16 0 -23 12.5t-1 26.5zM803 313q0 68 23.5 125.5t65.5 100.5t97 67.5t121 24.5h2q66 0 121 -23.5t96 -66.5t64.5 -100.5t23.5 -125.5 t-23.5 -125t-65.5 -100t-98 -67.5t-120 -24.5h-2q-66 0 -121 23.5t-96 66.5t-64.5 100.5t-23.5 124.5zM958 315q0 -66 43 -107.5t109 -41.5h2l2 4q66 0 110 42t44 105t-45 105.5t-111 42.5h-2q-66 0 -109 -42t-43 -108z" />
<glyph unicode="&#x26;" horiz-adv-x="1536" d="M84 412q0 94 66.5 188t207.5 172q-66 72 -94 146.5t-28 148.5q0 63 24.5 133t79.5 126t144 93t221 37q131 0 221 -36t146 -92t81 -127t25 -140q0 -51 -19.5 -103.5t-61.5 -100.5t-106.5 -91t-156.5 -74q74 -74 141 -139.5t127 -124.5q25 29 36 51.5t15 28.5 q10 27 35.5 38t52.5 1l154 -60q29 -10 40 -36.5t1 -55.5q-4 -10 -33 -59t-88 -113q31 -31 55.5 -53.5t40.5 -38.5q20 -18 35 -31l4 4q20 -29 4 -61.5t-51 -32.5h-213q-31 0 -47 23l-37 35q-78 -39 -178.5 -63.5t-225.5 -24.5q-29 0 -84 1t-121.5 12t-137 34.5t-128.5 68.5 q-16 12 -40.5 38t-48 66t-41 93t-17.5 119zM389 422q0 -53 37 -83t87 -44t102 -16.5t83 -2.5q94 0 166 19l-336 315q-57 -27 -98 -70.5t-41 -117.5zM500 1071q0 -49 36.5 -96t90.5 -94q16 4 34.5 9t36.5 9q68 14 112 36.5t69.5 47.5t36 47.5t10.5 40.5q0 23 -10.5 47.5 t-37 46t-69.5 35.5t-111 14q-33 0 -67.5 -10t-63 -29.5t-47 -46t-18.5 -57.5h-2z" />
<glyph unicode="'" horiz-adv-x="442" d="M82 1415v236q0 23 17.5 40t39.5 17h164v-2q23 0 40 -17.5t17 -39.5v-234q0 -16 -6 -29l-69 -163q-20 -37 -64 -37q-43 0 -63 37l-70 163q-6 12 -6 29z" />
<glyph unicode="(" horiz-adv-x="624" d="M84 692q0 193 34 357.5t87 299t116.5 238t124.5 170.5q14 16 28.5 27.5t35.5 11.5q18 0 34.5 -9t27 -23.5t11.5 -32t-10 -33.5q-43 -70 -90 -151t-87 -195.5t-66.5 -274.5t-26.5 -385t26.5 -385t66.5 -274.5t87 -195.5t90 -150q20 -35 -2 -67t-61 -32q-20 0 -34.5 11.5 t-29.5 27.5q-61 68 -124.5 171.5t-116.5 237.5t-87 299t-34 357z" />
<glyph unicode=")" horiz-adv-x="624" d="M40 -347.5q-1 17.5 9 34.5q43 70 90 150.5t87 195t66.5 274.5t26.5 385t-26.5 385t-66.5 274.5t-87 195.5t-90 151q-10 16 -9 33.5t11 32t26.5 23.5t35.5 9q20 0 34.5 -11.5t28.5 -27.5q61 -68 125 -171t117 -237.5t87 -299t34 -357.5t-34 -357.5t-87 -298.5 t-116.5 -237.5t-125.5 -171.5q-14 -16 -28.5 -27.5t-34.5 -11.5q-18 0 -35 9.5t-27 23.5t-11 31.5z" />
<glyph unicode="*" horiz-adv-x="835" d="M78 1440l28 86q4 12 16.5 17t24.5 1l123 -41q8 -4 15 -8l73 -65q16 -16 11 -39q-6 -23 -31 -27l-98 -8h-2q-12 0 -19 2l-123 41q-12 4 -17 16t-1 25zM163 1149.5q-3 13.5 5 24.5l76 104q8 8 12 10l84 51q20 10 41 -4h2q20 -12 16 -37l-22 -96q0 -8 -6 -14l-76 -105 q-8 -10 -21.5 -13t-23.5 5l-74 53q-10 8 -13 21.5zM342 1548v129q0 33 33 33h90q33 0 33 -33v-129q0 -8 -4 -16l-39 -90h-4q-10 -20 -33 -21q-23 0 -33 21l-39 90q-4 8 -4 16zM424 1294q-4 25 16 37q20 14 41 4l84 -51q4 -2 13 -10l77 -105q8 -10 5 -23t-13 -22l-74 -53 q-10 -8 -23 -5t-22 13l-75 105q-6 6 -7 14zM461 1382q-6 23 10 39l74 66q4 4 14 8l123 41q12 4 24.5 -1t16.5 -17l29 -86h-2q4 -12 -1.5 -24.5t-17.5 -16.5l-123 -41q-6 -2 -18 -2l-98 8q-25 4 -31 26z" />
<glyph unicode="+" horiz-adv-x="1024" d="M82 557v115q0 33 33 33h307v307q0 33 33 32h114q33 0 33 -32v-307h305l4 4q16 0 26.5 -10.5t10.5 -26.5v-111q0 -16 -10 -26.5t-27 -10.5h-305v-305q0 -16 -10 -26.5t-27 -10.5h-110q-16 0 -26.5 10.5t-10.5 26.5v305h-307q-33 0 -33 33z" />
<glyph unicode="," horiz-adv-x="471" d="M82 55v193q0 23 17.5 40t39.5 17h193l2 -2q23 0 40 -17.5t17 -39.5v-234q0 -16 -6 -28l-84 -164q-20 -37 -63 -37q-18 0 -35 9t-26 22.5t-11 31t6 35.5l51 117h-84q-23 0 -40 17.5t-17 39.5z" />
<glyph unicode="-" horiz-adv-x="784" d="M82 557v115q0 33 33 33h547q16 0 26 -10.5t10 -26.5v-111v4q0 -16 -10 -26.5t-26 -10.5h-547q-33 0 -33 33z" />
<glyph unicode="." horiz-adv-x="471" d="M82 57v193q0 23 17.5 40t39.5 17h193q23 0 40 -17.5t17 -39.5v-193q0 -23 -17.5 -40t-39.5 -17h-193q-23 0 -40 17.5t-17 39.5z" />
<glyph unicode="/" horiz-adv-x="811" d="M84 16l459 1416q6 20 30 20h125q16 0 24.5 -12.5t4.5 -28.5l-459 -1415q-6 -20 -30 -21h-125q-16 0 -24.5 12.5t-4.5 28.5z" />
<glyph unicode="0" horiz-adv-x="1361" d="M61 717q0 152 46.5 286t129 234t195.5 158.5t248 58.5t247.5 -58.5t195.5 -158.5t129 -234.5t46 -285.5q0 -152 -46 -286t-129 -234.5t-195.5 -158.5t-247.5 -58t-248 58t-195.5 158.5t-129 234.5t-46.5 286zM371 715q0 -92 19.5 -172t57 -139.5t96 -93.5t136.5 -34v-2 q78 0 135 34t96 93.5t57.5 139.5t18.5 172t-18.5 174t-57.5 143.5t-96 97t-135 35.5t-136.5 -35.5t-96 -97t-57 -142.5t-19.5 -173z" />
<glyph unicode="1" horiz-adv-x="1060" d="M115 934q2 16 14 31l436 436q18 18 45 18l185 4q27 0 45 -18.5t18 -44.5v-1301q0 -23 -17.5 -40t-39.5 -17h-193q-23 0 -40 17.5t-17 39.5v926l-98 -100q-16 -18 -41 -19h-240q-18 0 -32.5 10.5t-20.5 26t-4 31.5z" />
<glyph unicode="2" horiz-adv-x="1460" d="M100 63v343q0 203 116 316.5t308 145.5l273 47q20 2 45.5 7.5t53.5 12.5t53.5 17.5t43.5 22.5q12 8 22.5 20.5t10.5 32.5q0 39 -31.5 64.5t-74.5 41t-90.5 20.5t-77.5 5q-117 0 -188.5 -25.5t-92.5 -39.5q-39 -25 -61 -60q-8 -10 -25 -51q-10 -27 -35.5 -38t-52.5 -1 l-154 60q-29 10 -40 36.5t-1 55.5q8 23 15.5 39t11.5 28q25 57 75 109.5t127 91.5t180 61.5t237 22.5q27 0 78 -3t112 -16.5t126.5 -39t123.5 -70.5q14 -12 39.5 -37t49 -63.5t41 -91t17.5 -117.5q0 -86 -37.5 -157t-97.5 -124q-106 -96 -293 -133l-272 -47 q-39 -8 -80 -19.5t-73.5 -32t-53 -52t-20.5 -78.5v-58h870l4 2q25 0 42 -17.5t17 -41.5v-193q0 -25 -17 -42t-42 -17h-1118q-27 0 -45.5 18.5t-18.5 44.5z" />
<glyph unicode="3" horiz-adv-x="1452" d="M86 354q-10 29 1 55.5t40 36.5l154 60q27 10 52 -1t36 -38q16 -41 24 -51q23 -35 62 -60q20 -14 91.5 -39.5t188.5 -25.5q43 0 91 10t88 28.5t67 47.5t27 65q0 31 -9.5 58.5t-27.5 46.5q-37 37 -84 37h-228q-27 0 -45 18.5t-18 44.5v187q0 27 18.5 45t44.5 18h228 q47 0 84 37q18 18 27.5 46t9.5 58q0 37 -27 66t-67 47t-88 28.5t-91 10.5q-117 0 -188.5 -25.5t-91.5 -40.5q-39 -25 -62 -59q-8 -10 -24 -51q-10 -27 -36 -38t-52 -1l-154 59q-29 10 -40 37t-1 55q8 23 15.5 39.5t11.5 28.5q25 57 75 109.5t126.5 91.5t180 61.5t236.5 22.5 q27 0 78 -3t112.5 -16.5t127 -39t122.5 -70.5q14 -12 40 -38t49.5 -65t41 -92t17.5 -119q0 -90 -32 -152.5t-95 -125.5l-18 -19l18 -18v2q63 -63 95 -125.5t32 -153.5q0 -66 -17.5 -119t-41 -91.5t-49 -64.5t-40.5 -38q-57 -45 -122.5 -70.5t-127 -39t-112.5 -16.5t-78 -3 q-133 0 -236.5 22.5t-180 61.5t-127 90t-74.5 111q-4 12 -11.5 28.5t-15.5 38.5z" />
<glyph unicode="4" horiz-adv-x="1599" d="M88 340v192v7q-4 29 16 49l814 815q18 18 45 18h186q27 0 45 -18.5t18 -44.5v-768h240h-2q23 0 40 -17.5t17 -40.5v-192q0 -23 -17 -40t-40 -17h-240v-226q0 -23 -17 -40t-40 -17h-192q-23 0 -40.5 17.5t-17.5 39.5v226h-758q-23 0 -40 17t-17 40zM512 590h391v393z" />
<glyph unicode="5" horiz-adv-x="1443" d="M104 352q-10 29 1.5 55.5t39.5 36.5l154 60q27 10 52.5 -1t35.5 -38q16 -41 25 -51q23 -35 61 -60q20 -14 92 -39.5t189 -25.5q31 0 77 9t89 30.5t73.5 59.5t30.5 95t-31.5 95t-76 59.5t-91.5 30t-77 8.5h-512q-27 0 -45.5 18.5t-18.5 44.5v647q0 27 18.5 45.5t45.5 18.5 h1044q23 0 40 -17.5t17 -39.5v-193q0 -23 -17 -40t-40 -17h-799v-160h267q37 0 89 -4t110.5 -18.5t120.5 -42t120 -72.5l2 2q14 -12 39.5 -38t49.5 -69t41 -105.5t17 -148.5t-17 -148.5t-41 -105.5t-49.5 -67.5t-39.5 -36.5q-57 -45 -123 -70.5t-127 -39t-112.5 -16.5 t-77.5 -3q-133 0 -236.5 22.5t-180.5 61.5t-127 90t-75 111q-4 12 -11 28.5t-16 38.5z" />
<glyph unicode="6" horiz-adv-x="1411" d="M82 428q0 41 10 90t39 100q4 10 10 18.5t13 18.5l444 734q16 37 57 36h207q35 0 53.5 -28.5t2.5 -59.5l-273 -465h55v5q129 0 225.5 -23t165 -59.5t112.5 -83.5t69.5 -96.5t36 -98.5t10.5 -88t-10.5 -88t-36 -98t-69.5 -96.5t-112.5 -84t-165 -59t-225.5 -22.5t-225 22.5 t-164.5 59t-112.5 84t-70 96.5t-36 98t-10 88zM412 428q0 -53 26.5 -91t67.5 -62.5t93 -36t101 -11.5t101.5 11.5t93.5 36t67.5 62.5t26.5 91t-26.5 91t-67.5 62.5t-93 36t-102 11.5q-49 0 -101 -11.5t-93 -36t-67.5 -62.5t-26.5 -91z" />
<glyph unicode="7" horiz-adv-x="1374" d="M43 1167v193q0 25 17.5 42t41.5 17h1131q31 0 43 -22v-2q12 -23 0 -49l-574 -1311q-16 -37 -57 -37h-229q-35 0 -53.5 28.5t-2.5 59.5l488 1022h-746q-25 0 -42 17.5t-17 41.5z" />
<glyph unicode="8" horiz-adv-x="1374" d="M45 461q0 33 7 76t29.5 88t62.5 89t108 79q-47 51 -69.5 113.5t-22.5 129.5q0 63 18.5 137t72.5 136.5t152.5 103.5t260.5 41t260 -41t152 -103.5t72.5 -136t18.5 -137.5q0 -68 -22.5 -130t-69.5 -113q68 -35 108 -79t62.5 -89t29.5 -88t7 -76q0 -102 -35 -190.5 t-109.5 -154t-191.5 -103.5t-282 -38q-166 0 -283 38t-191.5 103.5t-109.5 153.5t-35 191zM356 446q0 -61 36 -100t85 -60.5t101.5 -29.5t87.5 -8h-4q35 0 87 8t101 29.5t84 60.5t35 100q0 53 -29 88t-74 54.5t-99 28t-103 8.5t-103.5 -8.5t-99.5 -28t-75 -54t-30 -88.5z M449 1034q0 -51 23.5 -82.5t57 -50t71.5 -25t65 -6.5t64.5 6.5t71.5 25t57.5 50t23.5 82.5q0 45 -20.5 75t-51.5 48.5t-70 25.5t-75 7q-37 0 -76 -7t-70 -25.5t-51 -48.5t-20 -75z" />
<glyph unicode="9" horiz-adv-x="1411" d="M84 1001q0 39 10 88.5t36 98.5t70 96t112.5 84t164.5 59.5t225 22.5t225.5 -22.5t165 -59.5t112.5 -84t69.5 -96t36 -98.5t10.5 -88.5q0 -41 -10.5 -90t-38.5 -100v-4q-4 -10 -10.5 -18.5t-12.5 -18.5l-444 -733q-16 -37 -57 -37h-207q-35 0 -53.5 28.5t-2.5 59.5 l273 465h-56q-129 0 -225 22.5t-164.5 59.5t-112.5 84t-70 96t-36 98.5t-10 87.5zM410 997q0 -53 26.5 -91t67.5 -62.5t93 -35.5t101 -11t101.5 11t93.5 35.5t67.5 62.5t26.5 91t-26.5 91t-67.5 63t-93 36t-102 11q-49 0 -101 -11t-93 -36t-67.5 -63t-26.5 -91z" />
<glyph unicode=":" horiz-adv-x="479" d="M82 57v193q0 23 17.5 40t39.5 17h193q23 0 40 -17.5t17 -39.5v-193q0 -23 -17.5 -40t-39.5 -17h-193q-23 0 -40 17.5t-17 39.5zM82 1044v193q0 23 17.5 40t39.5 17h193q23 0 40 -17t17 -40v-193q0 -23 -17.5 -40t-39.5 -17h-193q-23 0 -40 17.5t-17 39.5z" />
<glyph unicode=";" horiz-adv-x="487" d="M90 55v193q0 23 17.5 40t39.5 17h193l2 -2q23 0 40 -17.5t17 -39.5v-234q0 -16 -6 -28l-84 -164q-20 -37 -63 -37q-18 0 -34.5 9t-26 22.5t-11.5 31t6 35.5l51 117h-84q-23 0 -40 17.5t-17 39.5zM92 1040v193q0 23 17.5 40t40.5 17h192q23 0 40 -17.5t17 -39.5v-193 q0 -23 -17 -40t-40 -17h-192q-23 0 -40.5 17.5t-17.5 39.5z" />
<glyph unicode="=" horiz-adv-x="1024" d="M82 348v115q0 33 33 33h792v4q16 0 26.5 -10.5t10.5 -26.5v-111q0 -16 -10 -26.5t-27 -10.5h-792q-33 0 -33 33zM82 764v115q0 33 33 32h792v4q16 0 26.5 -10t10.5 -26v-111q0 -16 -10 -26.5t-27 -10.5h-792q-33 0 -33 33z" />
<glyph unicode="?" horiz-adv-x="1421" d="M96 1098q8 23 15.5 39t11.5 28q25 57 75 109.5t126.5 91.5t180 61.5t236.5 22.5q27 0 78 -3t112.5 -16.5t127 -39t123.5 -70.5h2q14 -12 39.5 -36.5t49 -63.5t41 -91.5t17.5 -117.5q0 -86 -38 -156t-97 -123q-53 -47 -134 -85t-198 -54v-76q0 -23 -17.5 -40t-39.5 -17 h-193q-23 0 -40 17.5t-17 39.5v293q0 23 17.5 40t39.5 17h97q66 0 140.5 10.5t115.5 41.5q31 25 40 47t9 63q0 39 -31 64.5t-74 41t-89 20.5t-77 5q-117 0 -188.5 -25.5t-91.5 -39.5q-39 -25 -62 -60q-8 -10 -24 -51q-10 -27 -36 -38t-52 -1l-154 60q-29 10 -40 36.5 t-1 55.5zM557 57v193q0 23 17.5 40t39.5 17h193q23 0 40 -17.5t17 -39.5v-193q0 -23 -17.5 -40t-39.5 -17h-193q-23 0 -40 17.5t-17 39.5z" />
<glyph unicode="A" horiz-adv-x="1421" d="M98 23q-12 23 0 49l572 1345q12 29 41 29t41 -29l571 -1345h4q12 -27 0 -49q-12 -23 -43 -23h-201q-20 0 -38.5 11.5t-28.5 27.5l-76 180h-453l-75 -180q-10 -16 -28.5 -27.5t-39.5 -11.5h-203q-31 0 -43 23zM586 457h258l-129 313z" />
<glyph unicode="&#xc4;" horiz-adv-x="1421" d="M98 23q-12 23 0 49l572 1345q12 29 41 29t41 -29l571 -1345h4q12 -27 0 -49q-12 -23 -43 -23h-201q-20 0 -38.5 11.5t-28.5 27.5l-76 180h-453l-75 -180q-10 -16 -28.5 -27.5t-39.5 -11.5h-203q-31 0 -43 23zM586 457h258l-129 313z" />
<glyph unicode="&#xc3;" horiz-adv-x="1421" d="M98 23q-12 23 0 49l572 1345q12 29 41 29t41 -29l571 -1345h4q12 -27 0 -49q-12 -23 -43 -23h-201q-20 0 -38.5 11.5t-28.5 27.5l-76 180h-453l-75 -180q-10 -16 -28.5 -27.5t-39.5 -11.5h-203q-31 0 -43 23zM586 457h258l-129 313z" />
<glyph unicode="&#xc2;" horiz-adv-x="1421" d="M98 23q-12 23 0 49l572 1345q12 29 41 29t41 -29l571 -1345h4q12 -27 0 -49q-12 -23 -43 -23h-201q-20 0 -38.5 11.5t-28.5 27.5l-76 180h-453l-75 -180q-10 -16 -28.5 -27.5t-39.5 -11.5h-203q-31 0 -43 23zM586 457h258l-129 313z" />
<glyph unicode="&#xc1;" horiz-adv-x="1421" d="M98 23q-12 23 0 49l572 1345q12 29 41 29t41 -29l571 -1345h4q12 -27 0 -49q-12 -23 -43 -23h-201q-20 0 -38.5 11.5t-28.5 27.5l-76 180h-453l-75 -180q-10 -16 -28.5 -27.5t-39.5 -11.5h-203q-31 0 -43 23zM586 457h258l-129 313z" />
<glyph unicode="&#xc0;" horiz-adv-x="1421" d="M98 23q-12 23 0 49l572 1345q12 29 41 29t41 -29l571 -1345h4q12 -27 0 -49q-12 -23 -43 -23h-201q-20 0 -38.5 11.5t-28.5 27.5l-76 180h-453l-75 -180q-10 -16 -28.5 -27.5t-39.5 -11.5h-203q-31 0 -43 23zM586 457h258l-129 313z" />
<glyph unicode="B" horiz-adv-x="1419" d="M94 61v1299q0 25 17.5 42t42.5 17h667q176 0 303 -127t127 -305q0 -129 -67 -233l18 -19h2q127 -127 127 -305q0 -174 -127 -305q-127 -127 -303 -127h-743q-27 0 -45.5 18.5t-18.5 44.5zM406 311h495q47 0 84 39v4q37 39 37 92t-37 95q-37 39 -84 39h-495v-269zM406 842 h415q47 0 84 39t37 94q0 53 -37 94q-37 39 -84 39h-415v2v-268z" />
<glyph unicode="C" horiz-adv-x="1595" d="M92 717q0 152 56.5 286t158 234t240.5 158.5t305 58.5q213 0 379 -93t264 -247q16 -23 7 -48.5t-36 -35.5l-194 -74q-18 -8 -38 -1.5t-30 22.5q-57 86 -146 137t-206 51q-94 0 -173 -34.5t-136.5 -95t-89 -141.5t-31.5 -173v-8q0 -92 31.5 -171t89 -137.5t136.5 -92 t173 -33.5q117 0 206 46t146 132q10 16 29.5 22t38.5 -2l194 -74h2q27 -10 36 -35.5t-7 -48.5q-98 -154 -265 -246.5t-380 -92.5q-166 0 -305 58t-240.5 158.5t-158 234.5t-56.5 286z" />
<glyph unicode="D" horiz-adv-x="1415" d="M88 57v1309q0 25 17.5 42t41.5 17h418v-2q168 0 307.5 -54t239.5 -149.5t155.5 -225.5t55.5 -279v-4q0 -152 -55.5 -282t-155.5 -225t-239.5 -150.5t-307.5 -55.5h-418q-25 0 -42 17.5t-17 41.5zM383 281h182q96 0 175 30.5t136.5 87t88 135t30.5 173.5v4q0 94 -30.5 173 t-88 136t-136 89t-175.5 32h-182v-860z" />
<glyph unicode="E" d="M88 61v1301q0 25 17.5 42t41.5 17h1123q25 0 42 -17.5t17 -41.5v-195q0 -25 -17.5 -42t-41.5 -17v6h-871v-246h721q25 0 42.5 -17t17.5 -42v-195q0 -25 -17.5 -42t-42.5 -17h-721v-246h871q25 0 42 -17.5t17 -41.5v-193q0 -25 -17.5 -42t-41.5 -17h-1118 q-27 0 -45.5 18.5t-18.5 44.5z" />
<glyph unicode="&#xca;" d="M88 61v1301q0 25 17.5 42t41.5 17h1123q25 0 42 -17.5t17 -41.5v-195q0 -25 -17.5 -42t-41.5 -17v6h-871v-246h721q25 0 42.5 -17t17.5 -42v-195q0 -25 -17.5 -42t-42.5 -17h-721v-246h871q25 0 42 -17.5t17 -41.5v-193q0 -25 -17.5 -42t-41.5 -17h-1118 q-27 0 -45.5 18.5t-18.5 44.5z" />
<glyph unicode="&#xc9;" d="M88 61v1301q0 25 17.5 42t41.5 17h1123q25 0 42 -17.5t17 -41.5v-195q0 -25 -17.5 -42t-41.5 -17v6h-871v-246h721q25 0 42.5 -17t17.5 -42v-195q0 -25 -17.5 -42t-42.5 -17h-721v-246h871q25 0 42 -17.5t17 -41.5v-193q0 -25 -17.5 -42t-41.5 -17h-1118 q-27 0 -45.5 18.5t-18.5 44.5z" />
<glyph unicode="&#xc8;" d="M88 61v1301q0 25 17.5 42t41.5 17h1123q25 0 42 -17.5t17 -41.5v-195q0 -25 -17.5 -42t-41.5 -17v6h-871v-246h721q25 0 42.5 -17t17.5 -42v-195q0 -25 -17.5 -42t-42.5 -17h-721v-246h871q25 0 42 -17.5t17 -41.5v-193q0 -25 -17.5 -42t-41.5 -17h-1118 q-27 0 -45.5 18.5t-18.5 44.5z" />
<glyph unicode="F" horiz-adv-x="1437" d="M88 57v1303q0 25 17.5 42t41.5 17h1121l2 6q25 0 42 -17t17 -42v-195q0 -25 -17.5 -42t-41.5 -17h-869v-244h721q25 0 42.5 -17t17.5 -42v-195q0 -25 -17.5 -42t-42.5 -17h-721v-498q0 -25 -17 -42t-42 -17h-195q-25 0 -42 17.5t-17 41.5z" />
<glyph unicode="G" horiz-adv-x="1697" d="M90 709v4q0 152 56.5 286t158 234t239.5 158.5t304 58.5q213 0 380 -93t265 -247q16 -23 7 -48.5t-36 -35.5l-194 -74q-18 -8 -38 -2t-30 23q-57 86 -147 137t-207 51q-94 0 -173 -34.5t-136.5 -95t-89 -141.5t-31.5 -173v-4q0 -92 31.5 -172t89 -139.5t136.5 -93.5 t173 -34q119 0 211 48.5t147 138.5q14 20 17 35l4 16h-318q-27 0 -44 17.5t-17 43.5v144q0 25 17.5 42t41.5 17h641l-2 -2q25 0 42.5 -17.5t17.5 -41.5v-2q0 -133 -43 -250q-37 -106 -105.5 -195.5t-161 -154t-206 -101.5t-242.5 -37q-166 0 -304 57.5t-239.5 157 t-158 233.5t-56.5 286z" />
<glyph unicode="H" horiz-adv-x="1458" d="M104 57v1303q0 25 17.5 42t42.5 17h194q25 0 42.5 -17.5t17.5 -41.5v-498h616v498q0 25 17.5 42t42.5 17h194q25 0 42.5 -17.5t17.5 -41.5v-1303q0 -25 -17.5 -42t-42.5 -17h-194q-25 0 -42.5 17.5t-17.5 41.5v498h-616v-498q0 -25 -17.5 -42t-42.5 -17h-194 q-25 0 -42.5 17.5t-17.5 41.5z" />
<glyph unicode="I" horiz-adv-x="557" d="M111 57v1305q0 23 17 40t40 17h192q23 0 40.5 -17.5t17.5 -39.5v-1305q0 -23 -17.5 -40t-40.5 -17h-192q-23 0 -40 17.5t-17 39.5z" />
<glyph unicode="&#xce;" horiz-adv-x="557" d="M111 57v1305q0 23 17 40t40 17h192q23 0 40.5 -17.5t17.5 -39.5v-1305q0 -23 -17.5 -40t-40.5 -17h-192q-23 0 -40 17.5t-17 39.5z" />
<glyph unicode="&#xcd;" horiz-adv-x="557" d="M111 57v1305q0 23 17 40t40 17h192q23 0 40.5 -17.5t17.5 -39.5v-1305q0 -23 -17.5 -40t-40.5 -17h-192q-23 0 -40 17.5t-17 39.5z" />
<glyph unicode="&#xcc;" horiz-adv-x="557" d="M111 57v1305q0 23 17 40t40 17h192q23 0 40.5 -17.5t17.5 -39.5v-1305q0 -23 -17.5 -40t-40.5 -17h-192q-23 0 -40 17.5t-17 39.5z" />
<glyph unicode="J" horiz-adv-x="1431" d="M88 369q-10 29 1 57.5t40 38.5l162 61q29 10 55.5 -1t36.5 -40q16 -43 25 -53q33 -45 95 -82t138 -37q72 0 138.5 18.5t116.5 62.5t80 119t30 185v658q0 27 18 45t45 18h188v2q27 0 45.5 -18.5t18.5 -44.5v-629q0 -147 -35 -280.5t-114.5 -232.5t-208.5 -157.5 t-320 -58.5q-117 0 -205 25.5t-151.5 67.5t-104.5 96.5t-65 109.5q-4 12 -11.5 29.5t-17.5 40.5z" />
<glyph unicode="K" d="M111 59v1305q0 25 17 42t42 17h192q25 0 42.5 -17t17.5 -42v-485l506 524q14 18 41 18h239q18 0 32.5 -10t21 -25.5t4.5 -32t-15 -30.5l-467 -469l553 -760v4q11 -16 11 -33q0 -15 -7 -29q-16 -32 -51 -32h-233q-31 0 -47 23l-445 608l-143 -143v-433q0 -25 -17.5 -42 t-42.5 -17h-192q-25 0 -42 17.5t-17 41.5z" />
<glyph unicode="L" d="M106 61v1297q0 27 18.5 45t45.5 18h186q27 0 45.5 -18.5t18.5 -44.5v-1049h870h-2q25 0 42.5 -17.5t17.5 -41.5v-193q0 -25 -17.5 -42t-42.5 -17h-1118q-27 0 -45.5 18.5t-18.5 44.5z" />
<glyph unicode="M" horiz-adv-x="1767" d="M127 61v1330q0 23 12.5 38t30.5 21t37.5 1t32.5 -24l645 -993l645 993q12 18 31.5 23.5t38 -0.5t30.5 -21.5t12 -37.5v-1330q0 -23 -17 -40t-40 -17h-192q-23 0 -40.5 17.5t-17.5 39.5v590l-409 -647q-12 -29 -41 -29t-41 29l-410 647v-590q0 -23 -17.5 -40t-39.5 -17 h-193q-23 0 -40 17.5t-17 39.5z" />
<glyph unicode="N" horiz-adv-x="1484" d="M123 63v1332q0 18 10 32.5t25.5 20.5t32 4t30.5 -14l826 -785v713q0 25 17 42t42 17h197q25 0 42 -17t17 -42v-1331q0 -39 -34 -55q-12 -6 -24 -5q-20 0 -38 17l-830 784v-713q0 -25 -17.5 -42t-41.5 -17h-195q-25 0 -42 17.5t-17 41.5z" />
<glyph unicode="O" horiz-adv-x="1697" d="M90 713v4q0 152 56.5 286t158 234t239.5 158.5t304 58.5t304 -57.5t239.5 -156.5t158 -233.5t56.5 -285.5v-4q0 -152 -56.5 -286t-158 -234.5t-239.5 -158.5t-304 -58t-304 57t-239.5 156.5t-158 233.5t-56.5 286zM418 715q0 -92 31.5 -172t89 -139.5t136.5 -93.5 t173 -34t173 34t136 92.5t89 137t32 171.5v2q0 92 -32 174t-89 143.5t-136 97t-173 35.5t-173 -34.5t-136.5 -95t-89 -141.5t-31.5 -173v-4z" />
<glyph unicode="&#xd6;" horiz-adv-x="1697" d="M90 713v4q0 152 56.5 286t158 234t239.5 158.5t304 58.5t304 -57.5t239.5 -156.5t158 -233.5t56.5 -285.5v-4q0 -152 -56.5 -286t-158 -234.5t-239.5 -158.5t-304 -58t-304 57t-239.5 156.5t-158 233.5t-56.5 286zM418 715q0 -92 31.5 -172t89 -139.5t136.5 -93.5 t173 -34t173 34t136 92.5t89 137t32 171.5v2q0 92 -32 174t-89 143.5t-136 97t-173 35.5t-173 -34.5t-136.5 -95t-89 -141.5t-31.5 -173v-4z" />
<glyph unicode="&#xd5;" horiz-adv-x="1697" d="M90 713v4q0 152 56.5 286t158 234t239.5 158.5t304 58.5t304 -57.5t239.5 -156.5t158 -233.5t56.5 -285.5v-4q0 -152 -56.5 -286t-158 -234.5t-239.5 -158.5t-304 -58t-304 57t-239.5 156.5t-158 233.5t-56.5 286zM418 715q0 -92 31.5 -172t89 -139.5t136.5 -93.5 t173 -34t173 34t136 92.5t89 137t32 171.5v2q0 92 -32 174t-89 143.5t-136 97t-173 35.5t-173 -34.5t-136.5 -95t-89 -141.5t-31.5 -173v-4z" />
<glyph unicode="&#xd4;" horiz-adv-x="1697" d="M90 713v4q0 152 56.5 286t158 234t239.5 158.5t304 58.5t304 -57.5t239.5 -156.5t158 -233.5t56.5 -285.5v-4q0 -152 -56.5 -286t-158 -234.5t-239.5 -158.5t-304 -58t-304 57t-239.5 156.5t-158 233.5t-56.5 286zM418 715q0 -92 31.5 -172t89 -139.5t136.5 -93.5 t173 -34t173 34t136 92.5t89 137t32 171.5v2q0 92 -32 174t-89 143.5t-136 97t-173 35.5t-173 -34.5t-136.5 -95t-89 -141.5t-31.5 -173v-4z" />
<glyph unicode="&#xd3;" horiz-adv-x="1697" d="M90 713v4q0 152 56.5 286t158 234t239.5 158.5t304 58.5t304 -57.5t239.5 -156.5t158 -233.5t56.5 -285.5v-4q0 -152 -56.5 -286t-158 -234.5t-239.5 -158.5t-304 -58t-304 57t-239.5 156.5t-158 233.5t-56.5 286zM418 715q0 -92 31.5 -172t89 -139.5t136.5 -93.5 t173 -34t173 34t136 92.5t89 137t32 171.5v2q0 92 -32 174t-89 143.5t-136 97t-173 35.5t-173 -34.5t-136.5 -95t-89 -141.5t-31.5 -173v-4z" />
<glyph unicode="&#xd2;" horiz-adv-x="1697" d="M90 713v4q0 152 56.5 286t158 234t239.5 158.5t304 58.5t304 -57.5t239.5 -156.5t158 -233.5t56.5 -285.5v-4q0 -152 -56.5 -286t-158 -234.5t-239.5 -158.5t-304 -58t-304 57t-239.5 156.5t-158 233.5t-56.5 286zM418 715q0 -92 31.5 -172t89 -139.5t136.5 -93.5 t173 -34t173 34t136 92.5t89 137t32 171.5v2q0 92 -32 174t-89 143.5t-136 97t-173 35.5t-173 -34.5t-136.5 -95t-89 -141.5t-31.5 -173v-4z" />
<glyph unicode="P" d="M111 57v1305q0 25 17 42t42 17h694q201 0 342 -141l2 -4q141 -141 142 -342q0 -195 -142 -338q-141 -141 -342 -141h-442v-398q0 -25 -17.5 -42t-41.5 -17h-195q-25 0 -42 17.5t-17 41.5zM422 768h444q70 0 121 51v-2q51 51 51 121t-51 121t-121 51h-444v-342z" />
<glyph unicode="Q" horiz-adv-x="1697" d="M92 711v4q0 152 56.5 286t158 234t240.5 158.5t305 58.5t304 -57.5t238.5 -156.5t157 -233.5t56.5 -285.5v2v-4q0 -125 -38 -237.5t-110 -207.5l137 -172q11 -16 11 -33q0 -14 -7 -29q-16 -32 -51 -32h-233q-31 0 -47 23l-37 45q-84 -47 -180.5 -72t-204.5 -25 q-166 0 -304 57.5t-238.5 157t-157 233.5t-56.5 286zM420 717q0 -92 31.5 -172t89 -139.5t137.5 -93t174 -33.5q96 0 184 38l-196 242q-16 18 -14.5 42t20.5 40l143 123q18 16 43 14t41 -22l174 -217q16 41 24.5 84t8.5 90v2q0 92 -31.5 174t-89 143.5t-137.5 97t-174 35.5 t-173 -34.5t-135.5 -95t-88 -141.5t-31.5 -173v-4z" />
<glyph unicode="R" d="M111 53v1305q0 25 17 42t42 17h694q201 0 342 -141t142 -342q0 -195 -142 -338q-74 -72 -159 -104l288 -404q20 -29 5 -60.5t-50 -31.5h-229q-29 0 -45 22l-316 433h-276v-398q0 -25 -17.5 -42t-41.5 -17h-195q-25 0 -42 17.5t-17 41.5zM418 766h444q70 0 121 51v-2 q51 51 51 121t-51 121t-121 51h-444v-342z" />
<glyph unicode="S" horiz-adv-x="1419" d="M92 1014q0 66 17.5 118t41 91t48 63.5t41.5 36.5q57 45 122.5 70.5t127 39t111.5 16.5t79 3q133 0 236.5 -22.5t180.5 -61.5t127 -91t74 -110q4 -12 11.5 -28.5t15.5 -38.5q10 -29 -1 -55.5t-40 -36.5l-154 -60q-27 -10 -52 1.5t-36 37.5q-16 41 -24 51q-23 35 -62 60 q-20 14 -91.5 39.5t-188.5 25.5q-31 0 -78 -5t-90 -20.5t-75 -41t-32 -64.5q0 -20 10.5 -32.5t22.5 -20.5q18 -12 44 -22.5t53.5 -17.5t53 -12t46.5 -7l272 -48l2 2q193 -33 308.5 -149.5t115.5 -302.5q0 -66 -17.5 -119t-41 -93t-49 -65.5t-39.5 -38.5q-57 -45 -123 -70.5 t-127.5 -38.5t-112.5 -16.5t-78 -3.5q-133 0 -236.5 24t-180 63.5t-127 92t-74.5 111.5q-4 12 -11.5 28.5t-15.5 39.5q-10 29 1.5 55.5t39.5 36.5l154 59q27 10 52.5 -1t35.5 -37q16 -41 24 -52q23 -35 62 -59q20 -14 92 -40t188 -26q31 0 78 5.5t90 20.5t75 39.5t32 65.5 q0 33 -20.5 58.5t-53.5 43t-74 29t-79 19.5l-273 47q-186 37 -293 133q-59 53 -97 124t-38 157z" />
<glyph unicode="T" horiz-adv-x="1429" d="M86 1167v193q0 25 17.5 42t41.5 17h1123q25 0 42 -17.5t17 -41.5l2 -193q0 -25 -17.5 -42t-41.5 -17h-408v-1045q0 -29 -18.5 -47t-46.5 -18h-187q-25 0 -42 17.5t-17 41.5v1051h-406q-25 0 -42 17.5t-17 41.5z" />
<glyph unicode="U" horiz-adv-x="1441" d="M88 596v770q0 23 17.5 40t39.5 17h193q23 0 40 -17t17 -40v-743q0 -172 85 -258t227 -86q141 0 223 85t82 250v754q0 23 17.5 40t39.5 17h199l-2 -2q23 0 40 -17t17 -40v-760q0 -160 -44 -277.5t-124 -196.5t-193.5 -118t-254.5 -39t-255 39t-195 117t-125 194.5 t-44 270.5z" />
<glyph unicode="&#xdb;" horiz-adv-x="1441" d="M88 596v770q0 23 17.5 40t39.5 17h193q23 0 40 -17t17 -40v-743q0 -172 85 -258t227 -86q141 0 223 85t82 250v754q0 23 17.5 40t39.5 17h199l-2 -2q23 0 40 -17t17 -40v-760q0 -160 -44 -277.5t-124 -196.5t-193.5 -118t-254.5 -39t-255 39t-195 117t-125 194.5 t-44 270.5z" />
<glyph unicode="&#xda;" horiz-adv-x="1441" d="M88 596v770q0 23 17.5 40t39.5 17h193q23 0 40 -17t17 -40v-743q0 -172 85 -258t227 -86q141 0 223 85t82 250v754q0 23 17.5 40t39.5 17h199l-2 -2q23 0 40 -17t17 -40v-760q0 -160 -44 -277.5t-124 -196.5t-193.5 -118t-254.5 -39t-255 39t-195 117t-125 194.5 t-44 270.5z" />
<glyph unicode="&#xd9;" horiz-adv-x="1441" d="M88 596v770q0 23 17.5 40t39.5 17h193q23 0 40 -17t17 -40v-743q0 -172 85 -258t227 -86q141 0 223 85t82 250v754q0 23 17.5 40t39.5 17h199l-2 -2q23 0 40 -17t17 -40v-760q0 -160 -44 -277.5t-124 -196.5t-193.5 -118t-254.5 -39t-255 39t-195 117t-125 194.5 t-44 270.5z" />
<glyph unicode="V" horiz-adv-x="1406" d="M94 1352q-12 27 0 49q12 23 43 22h201q20 0 38.5 -11t29.5 -28l301 -729l301 729q10 16 28.5 27.5t38.5 11.5h203q31 0 43 -22h-2q12 -23 0 -49l-571 -1346q-12 -29 -41 -29t-41 29z" />
<glyph unicode="W" horiz-adv-x="2156" d="M98 1352q-12 27 0 49q12 23 43 22h201q20 0 38.5 -11t29.5 -28l301 -729l325 770q12 29 41 29t41 -29l326 -770l301 729q10 16 28.5 27.5t38.5 11.5h201q31 1 43 -22t0 -49l-571 -1346q-12 -29 -41 -29t-41 29l-170 402l-156 368l-155 -368l-170 -402q-12 -29 -41 -29 t-41 29z" />
<glyph unicode="X" horiz-adv-x="1472" d="M84 1382q16 34 55 33h226q31 0 51 -26l313 -426l313 426q20 27 52 26h225q39 1 55 -33q7 -14 7 -28q0 -19 -13 -37l-448 -610l448 -611q13 -18 13 -37q-1 -13 -7 -27q-16 -34 -55 -34h-225q-31 0 -52 27l-313 426l-313 -426q-20 -27 -51 -27h-226q-39 0 -55 34 q-7 14 -7 28q0 19 13 36l449 611l-449 610q-13 18 -13 37q0 14 7 28z" />
<glyph unicode="Y" horiz-adv-x="1474" d="M83 1355.5q-1 16.5 5 31t19.5 23.5t31.5 9h232q31 0 47 -22l313 -428l313 428q16 23 48 22h231h6q35 0 51 -31q6 -14 6 -27q0 -17 -12 -34l-483 -665v-605q0 -25 -17.5 -42t-42.5 -17h-194q-25 0 -42 17.5t-17 41.5v607l-484 661q-10 14 -11 30.5z" />
<glyph unicode="Z" horiz-adv-x="1574" d="M88 64.5q2 17.5 14 33.5l811 1008h-739q-25 0 -42 17.5t-17 41.5v195q0 25 17.5 42t41.5 17l1229 -2q20 0 34.5 -10t21.5 -25.5t5 -34t-14 -32.5l-797 -1006h723l-2 -2q27 0 45.5 -18.5t18.5 -44.5v-187q0 -27 -18.5 -45t-45.5 -18h-1224q-20 0 -35 10t-22 26.5t-5 34z " />
<glyph unicode="[" horiz-adv-x="616" d="M80 -352v2083q0 27 18.5 45t44.5 18h361q12 0 21.5 -9t9.5 -22v-92q0 -12 -9.5 -21.5t-21.5 -9.5l-201 -6v-1896h201q12 0 21.5 -9.5t9.5 -21.5v-92q0 -12 -9.5 -21.5t-21.5 -9.5h-361q-27 0 -45 18.5t-18 45.5z" />
<glyph unicode="\" horiz-adv-x="821" d="M84 1413q-4 16 4 28.5t25 12.5h125q25 0 30 -20l459 -1416q4 -16 -4 -28.5t-25 -12.5h-125q-25 0 -30 21z" />
<glyph unicode="]" horiz-adv-x="616" d="M82 -293q0 12 9 21.5t22 9.5l200 6v1896h-200q-12 0 -21.5 9.5t-9.5 21.5v92q0 12 9 21.5t22 9.5h360q27 0 45.5 -18.5t18.5 -44.5v-2083q0 -27 -18.5 -45.5t-45.5 -18.5h-360q-12 0 -21.5 9.5t-9.5 21.5v92z" />
<glyph unicode="_" horiz-adv-x="1515" d="M-2 -227h1515q4 0 5 -4v-177v5q0 -4 -5 -5h-1515v181z" />
<glyph unicode="a" horiz-adv-x="1421" d="M98 23q-12 23 0 49l572 1345q12 29 41 29t41 -29l571 -1345h4q12 -27 0 -49q-12 -23 -43 -23h-201q-20 0 -38.5 11.5t-28.5 27.5l-76 180h-453l-75 -180q-10 -16 -28.5 -27.5t-39.5 -11.5h-203q-31 0 -43 23zM586 457h258l-129 313z" />
<glyph unicode="b" horiz-adv-x="1419" d="M94 61v1299q0 25 17.5 42t42.5 17h667q176 0 303 -127t127 -305q0 -129 -67 -233l18 -19h2q127 -127 127 -305q0 -174 -127 -305q-127 -127 -303 -127h-743q-27 0 -45.5 18.5t-18.5 44.5zM406 311h495q47 0 84 39v4q37 39 37 92t-37 95q-37 39 -84 39h-495v-269zM406 842 h415q47 0 84 39t37 94q0 53 -37 94q-37 39 -84 39h-415v2v-268z" />
<glyph unicode="c" horiz-adv-x="1595" d="M92 717q0 152 56.5 286t158 234t240.5 158.5t305 58.5q213 0 379 -93t264 -247q16 -23 7 -48.5t-36 -35.5l-194 -74q-18 -8 -38 -1.5t-30 22.5q-57 86 -146 137t-206 51q-94 0 -173 -34.5t-136.5 -95t-89 -141.5t-31.5 -173v-8q0 -92 31.5 -171t89 -137.5t136.5 -92 t173 -33.5q117 0 206 46t146 132q10 16 29.5 22t38.5 -2l194 -74h2q27 -10 36 -35.5t-7 -48.5q-98 -154 -265 -246.5t-380 -92.5q-166 0 -305 58t-240.5 158.5t-158 234.5t-56.5 286z" />
<glyph unicode="d" horiz-adv-x="1415" d="M88 57v1309q0 25 17.5 42t41.5 17h418v-2q168 0 307.5 -54t239.5 -149.5t155.5 -225.5t55.5 -279v-4q0 -152 -55.5 -282t-155.5 -225t-239.5 -150.5t-307.5 -55.5h-418q-25 0 -42 17.5t-17 41.5zM383 281h182q96 0 175 30.5t136.5 87t88 135t30.5 173.5v4q0 94 -30.5 173 t-88 136t-136 89t-175.5 32h-182v-860z" />
<glyph unicode="e" d="M88 61v1301q0 25 17.5 42t41.5 17h1123q25 0 42 -17.5t17 -41.5v-195q0 -25 -17.5 -42t-41.5 -17v6h-871v-246h721q25 0 42.5 -17t17.5 -42v-195q0 -25 -17.5 -42t-42.5 -17h-721v-246h871q25 0 42 -17.5t17 -41.5v-193q0 -25 -17.5 -42t-41.5 -17h-1118 q-27 0 -45.5 18.5t-18.5 44.5z" />
<glyph unicode="f" horiz-adv-x="1437" d="M88 57v1303q0 25 17.5 42t41.5 17h1121l2 6q25 0 42 -17t17 -42v-195q0 -25 -17.5 -42t-41.5 -17h-869v-244h721q25 0 42.5 -17t17.5 -42v-195q0 -25 -17.5 -42t-42.5 -17h-721v-498q0 -25 -17 -42t-42 -17h-195q-25 0 -42 17.5t-17 41.5z" />
<glyph unicode="g" horiz-adv-x="1697" d="M90 709v4q0 152 56.5 286t158 234t239.5 158.5t304 58.5q213 0 380 -93t265 -247q16 -23 7 -48.5t-36 -35.5l-194 -74q-18 -8 -38 -2t-30 23q-57 86 -147 137t-207 51q-94 0 -173 -34.5t-136.5 -95t-89 -141.5t-31.5 -173v-4q0 -92 31.5 -172t89 -139.5t136.5 -93.5 t173 -34q119 0 211 48.5t147 138.5q14 20 17 35l4 16h-318q-27 0 -44 17.5t-17 43.5v144q0 25 17.5 42t41.5 17h641l-2 -2q25 0 42.5 -17.5t17.5 -41.5v-2q0 -133 -43 -250q-37 -106 -105.5 -195.5t-161 -154t-206 -101.5t-242.5 -37q-166 0 -304 57.5t-239.5 157 t-158 233.5t-56.5 286z" />
<glyph unicode="h" horiz-adv-x="1458" d="M104 57v1303q0 25 17.5 42t42.5 17h194q25 0 42.5 -17.5t17.5 -41.5v-498h616v498q0 25 17.5 42t42.5 17h194q25 0 42.5 -17.5t17.5 -41.5v-1303q0 -25 -17.5 -42t-42.5 -17h-194q-25 0 -42.5 17.5t-17.5 41.5v498h-616v-498q0 -25 -17.5 -42t-42.5 -17h-194 q-25 0 -42.5 17.5t-17.5 41.5z" />
<glyph unicode="i" horiz-adv-x="557" d="M111 57v1305q0 23 17 40t40 17h192q23 0 40.5 -17.5t17.5 -39.5v-1305q0 -23 -17.5 -40t-40.5 -17h-192q-23 0 -40 17.5t-17 39.5z" />
<glyph unicode="j" horiz-adv-x="1431" d="M88 369q-10 29 1 57.5t40 38.5l162 61q29 10 55.5 -1t36.5 -40q16 -43 25 -53q33 -45 95 -82t138 -37q72 0 138.5 18.5t116.5 62.5t80 119t30 185v658q0 27 18 45t45 18h188v2q27 0 45.5 -18.5t18.5 -44.5v-629q0 -147 -35 -280.5t-114.5 -232.5t-208.5 -157.5 t-320 -58.5q-117 0 -205 25.5t-151.5 67.5t-104.5 96.5t-65 109.5q-4 12 -11.5 29.5t-17.5 40.5z" />
<glyph unicode="k" d="M111 59v1305q0 25 17 42t42 17h192q25 0 42.5 -17t17.5 -42v-485l506 524q14 18 41 18h239q18 0 32.5 -10t21 -25.5t4.5 -32t-15 -30.5l-467 -469l553 -760v4q11 -16 11 -33q0 -15 -7 -29q-16 -32 -51 -32h-233q-31 0 -47 23l-445 608l-143 -143v-433q0 -25 -17.5 -42 t-42.5 -17h-192q-25 0 -42 17.5t-17 41.5z" />
<glyph unicode="l" d="M106 61v1297q0 27 18.5 45t45.5 18h186q27 0 45.5 -18.5t18.5 -44.5v-1049h870h-2q25 0 42.5 -17.5t17.5 -41.5v-193q0 -25 -17.5 -42t-42.5 -17h-1118q-27 0 -45.5 18.5t-18.5 44.5z" />
<glyph unicode="m" horiz-adv-x="1767" d="M127 61v1330q0 23 12.5 38t30.5 21t37.5 1t32.5 -24l645 -993l645 993q12 18 31.5 23.5t38 -0.5t30.5 -21.5t12 -37.5v-1330q0 -23 -17 -40t-40 -17h-192q-23 0 -40.5 17.5t-17.5 39.5v590l-409 -647q-12 -29 -41 -29t-41 29l-410 647v-590q0 -23 -17.5 -40t-39.5 -17 h-193q-23 0 -40 17.5t-17 39.5z" />
<glyph unicode="n" horiz-adv-x="1484" d="M123 63v1332q0 18 10 32.5t25.5 20.5t32 4t30.5 -14l826 -785v713q0 25 17 42t42 17h197q25 0 42 -17t17 -42v-1331q0 -39 -34 -55q-12 -6 -24 -5q-20 0 -38 17l-830 784v-713q0 -25 -17.5 -42t-41.5 -17h-195q-25 0 -42 17.5t-17 41.5z" />
<glyph unicode="o" horiz-adv-x="1697" d="M90 713v4q0 152 56.5 286t158 234t239.5 158.5t304 58.5t304 -57.5t239.5 -156.5t158 -233.5t56.5 -285.5v-4q0 -152 -56.5 -286t-158 -234.5t-239.5 -158.5t-304 -58t-304 57t-239.5 156.5t-158 233.5t-56.5 286zM418 715q0 -92 31.5 -172t89 -139.5t136.5 -93.5 t173 -34t173 34t136 92.5t89 137t32 171.5v2q0 92 -32 174t-89 143.5t-136 97t-173 35.5t-173 -34.5t-136.5 -95t-89 -141.5t-31.5 -173v-4z" />
<glyph unicode="p" d="M111 57v1305q0 25 17 42t42 17h694q201 0 342 -141l2 -4q141 -141 142 -342q0 -195 -142 -338q-141 -141 -342 -141h-442v-398q0 -25 -17.5 -42t-41.5 -17h-195q-25 0 -42 17.5t-17 41.5zM422 768h444q70 0 121 51v-2q51 51 51 121t-51 121t-121 51h-444v-342z" />
<glyph unicode="q" horiz-adv-x="1697" d="M92 711v4q0 152 56.5 286t158 234t240.5 158.5t305 58.5t304 -57.5t238.5 -156.5t157 -233.5t56.5 -285.5v2v-4q0 -125 -38 -237.5t-110 -207.5l137 -172q11 -16 11 -33q0 -14 -7 -29q-16 -32 -51 -32h-233q-31 0 -47 23l-37 45q-84 -47 -180.5 -72t-204.5 -25 q-166 0 -304 57.5t-238.5 157t-157 233.5t-56.5 286zM420 717q0 -92 31.5 -172t89 -139.5t137.5 -93t174 -33.5q96 0 184 38l-196 242q-16 18 -14.5 42t20.5 40l143 123q18 16 43 14t41 -22l174 -217q16 41 24.5 84t8.5 90v2q0 92 -31.5 174t-89 143.5t-137.5 97t-174 35.5 t-173 -34.5t-135.5 -95t-88 -141.5t-31.5 -173v-4z" />
<glyph unicode="r" d="M111 53v1305q0 25 17 42t42 17h694q201 0 342 -141t142 -342q0 -195 -142 -338q-74 -72 -159 -104l288 -404q20 -29 5 -60.5t-50 -31.5h-229q-29 0 -45 22l-316 433h-276v-398q0 -25 -17.5 -42t-41.5 -17h-195q-25 0 -42 17.5t-17 41.5zM418 766h444q70 0 121 51v-2 q51 51 51 121t-51 121t-121 51h-444v-342z" />
<glyph unicode="s" horiz-adv-x="1419" d="M92 1014q0 66 17.5 118t41 91t48 63.5t41.5 36.5q57 45 122.5 70.5t127 39t111.5 16.5t79 3q133 0 236.5 -22.5t180.5 -61.5t127 -91t74 -110q4 -12 11.5 -28.5t15.5 -38.5q10 -29 -1 -55.5t-40 -36.5l-154 -60q-27 -10 -52 1.5t-36 37.5q-16 41 -24 51q-23 35 -62 60 q-20 14 -91.5 39.5t-188.5 25.5q-31 0 -78 -5t-90 -20.5t-75 -41t-32 -64.5q0 -20 10.5 -32.5t22.5 -20.5q18 -12 44 -22.5t53.5 -17.5t53 -12t46.5 -7l272 -48l2 2q193 -33 308.5 -149.5t115.5 -302.5q0 -66 -17.5 -119t-41 -93t-49 -65.5t-39.5 -38.5q-57 -45 -123 -70.5 t-127.5 -38.5t-112.5 -16.5t-78 -3.5q-133 0 -236.5 24t-180 63.5t-127 92t-74.5 111.5q-4 12 -11.5 28.5t-15.5 39.5q-10 29 1.5 55.5t39.5 36.5l154 59q27 10 52.5 -1t35.5 -37q16 -41 24 -52q23 -35 62 -59q20 -14 92 -40t188 -26q31 0 78 5.5t90 20.5t75 39.5t32 65.5 q0 33 -20.5 58.5t-53.5 43t-74 29t-79 19.5l-273 47q-186 37 -293 133q-59 53 -97 124t-38 157z" />
<glyph unicode="t" horiz-adv-x="1429" d="M86 1167v193q0 25 17.5 42t41.5 17h1123q25 0 42 -17.5t17 -41.5l2 -193q0 -25 -17.5 -42t-41.5 -17h-408v-1045q0 -29 -18.5 -47t-46.5 -18h-187q-25 0 -42 17.5t-17 41.5v1051h-406q-25 0 -42 17.5t-17 41.5z" />
<glyph unicode="u" horiz-adv-x="1441" d="M88 596v770q0 23 17.5 40t39.5 17h193q23 0 40 -17t17 -40v-743q0 -172 85 -258t227 -86q141 0 223 85t82 250v754q0 23 17.5 40t39.5 17h199l-2 -2q23 0 40 -17t17 -40v-760q0 -160 -44 -277.5t-124 -196.5t-193.5 -118t-254.5 -39t-255 39t-195 117t-125 194.5 t-44 270.5z" />
<glyph unicode="v" horiz-adv-x="1406" d="M94 1352q-12 27 0 49q12 23 43 22h201q20 0 38.5 -11t29.5 -28l301 -729l301 729q10 16 28.5 27.5t38.5 11.5h203q31 0 43 -22h-2q12 -23 0 -49l-571 -1346q-12 -29 -41 -29t-41 29z" />
<glyph unicode="w" horiz-adv-x="2156" d="M98 1352q-12 27 0 49q12 23 43 22h201q20 0 38.5 -11t29.5 -28l301 -729l325 770q12 29 41 29t41 -29l326 -770l301 729q10 16 28.5 27.5t38.5 11.5h201q31 1 43 -22t0 -49l-571 -1346q-12 -29 -41 -29t-41 29l-170 402l-156 368l-155 -368l-170 -402q-12 -29 -41 -29 t-41 29z" />
<glyph unicode="x" horiz-adv-x="1472" d="M84 1382q16 34 55 33h226q31 0 51 -26l313 -426l313 426q20 27 52 26h225q39 1 55 -33q7 -14 7 -28q0 -19 -13 -37l-448 -610l448 -611q13 -18 13 -37q-1 -13 -7 -27q-16 -34 -55 -34h-225q-31 0 -52 27l-313 426l-313 -426q-20 -27 -51 -27h-226q-39 0 -55 34 q-7 14 -7 28q0 19 13 36l449 611l-449 610q-13 18 -13 37q0 14 7 28z" />
<glyph unicode="y" horiz-adv-x="1474" d="M83 1355.5q-1 16.5 5 31t19.5 23.5t31.5 9h232q31 0 47 -22l313 -428l313 428q16 23 48 22h231h6q35 0 51 -31q6 -14 6 -27q0 -17 -12 -34l-483 -665v-605q0 -25 -17.5 -42t-42.5 -17h-194q-25 0 -42 17.5t-17 41.5v607l-484 661q-10 14 -11 30.5z" />
<glyph unicode="z" horiz-adv-x="1574" d="M88 64.5q2 17.5 14 33.5l811 1008h-739q-25 0 -42 17.5t-17 41.5v195q0 25 17.5 42t41.5 17l1229 -2q20 0 34.5 -10t21.5 -25.5t5 -34t-14 -32.5l-797 -1006h723l-2 -2q27 0 45.5 -18.5t18.5 -44.5v-187q0 -27 -18.5 -45t-45.5 -18h-1224q-20 0 -35 10t-22 26.5t-5 34z " />
<glyph unicode="|" horiz-adv-x="454" d="M133 -379v2144q0 12 9.5 21.5t21.5 9.5h127q12 0 21.5 -9t9.5 -22v-2144q0 -12 -9.5 -21.5t-21.5 -9.5h-127q-12 0 -21.5 9.5t-9.5 21.5z" />
<glyph unicode="&#xad;" horiz-adv-x="784" d="M82 557v115q0 33 33 33h547q16 0 26 -10.5t10 -26.5v-111v4q0 -16 -10 -26.5t-26 -10.5h-547q-33 0 -33 33z" />
<glyph unicode="&#x2000;" horiz-adv-x="898" />
<glyph unicode="&#x2001;" horiz-adv-x="1796" />
<glyph unicode="&#x2002;" horiz-adv-x="898" />
<glyph unicode="&#x2003;" horiz-adv-x="1796" />
<glyph unicode="&#x2004;" horiz-adv-x="598" />
<glyph unicode="&#x2005;" horiz-adv-x="449" />
<glyph unicode="&#x2006;" horiz-adv-x="299" />
<glyph unicode="&#x2007;" horiz-adv-x="299" />
<glyph unicode="&#x2008;" horiz-adv-x="224" />
<glyph unicode="&#x2009;" horiz-adv-x="359" />
<glyph unicode="&#x200a;" horiz-adv-x="99" />
<glyph unicode="&#x2010;" horiz-adv-x="784" d="M82 557v115q0 33 33 33h547q16 0 26 -10.5t10 -26.5v-111v4q0 -16 -10 -26.5t-26 -10.5h-547q-33 0 -33 33z" />
<glyph unicode="&#x2011;" horiz-adv-x="784" d="M82 557v115q0 33 33 33h547q16 0 26 -10.5t10 -26.5v-111v4q0 -16 -10 -26.5t-26 -10.5h-547q-33 0 -33 33z" />
<glyph unicode="&#x2012;" horiz-adv-x="784" d="M82 557v115q0 33 33 33h547q16 0 26 -10.5t10 -26.5v-111v4q0 -16 -10 -26.5t-26 -10.5h-547q-33 0 -33 33z" />
<glyph unicode="&#x2013;" horiz-adv-x="1030" d="M82 557v115q0 33 33 33h792q16 0 26.5 -10.5t10.5 -26.5v-111v4q0 -16 -10 -26.5t-27 -10.5h-792q-33 0 -33 33z" />
<glyph unicode="&#x2014;" horiz-adv-x="1685" d="M82 557v115q0 33 33 33h1450q16 0 26.5 -10.5t10.5 -26.5v-111v4q0 -16 -10.5 -26.5t-26.5 -10.5h-1450q-33 0 -33 33z" />
<glyph unicode="&#x2019;" horiz-adv-x="479" d="M82 1473v192q0 23 17.5 40t39.5 17h193l2 -2q23 0 40 -17t17 -40v-233q0 -16 -6 -29l-84 -164q-20 -37 -63 -37q-18 0 -35 9.5t-26 22.5t-11 30.5t6 35.5l51 117h-84q-23 0 -40 17.5t-17 40.5z" />
<glyph unicode="&#x201c;" horiz-adv-x="786" d="M80 1247v236q0 16 6 28l84 164q20 37 63 37q39 0 59.5 -31.5t6.5 -66.5l-51 -117h55h-2q23 0 40 -17.5t17 -39.5v-193q0 -23 -17 -40t-40 -17h-164q-23 0 -40 17.5t-17 39.5zM414 1247v236q0 16 6 28l84 164q20 37 63 37q39 0 59.5 -31.5t6.5 -66.5l-51 -117h55h-2 q23 0 40 -17.5t17 -39.5v-193q0 -23 -17.5 -40t-39.5 -17h-164q-23 0 -40 17.5t-17 39.5z" />
<glyph unicode="&#x201d;" horiz-adv-x="786" d="M84 1460v193q0 23 17.5 40t39.5 17h164l2 -2q23 0 40.5 -17.5t17.5 -39.5v-234q0 -16 -7 -28l-84 -164q-20 -37 -63 -37q-18 0 -34.5 9t-26 22.5t-11.5 31t6 35.5l52 117h-56q-23 0 -40 17.5t-17 39.5zM418 1462v193q0 23 17.5 40t39.5 17h164l2 -2q23 0 40 -17.5 t17 -39.5v-234q0 -16 -6 -28l-84 -164q-20 -37 -63 -37q-18 0 -34.5 9t-26 22.5t-11.5 31t6 35.5l51 117h-55q-23 0 -40 17.5t-17 39.5z" />
<glyph unicode="&#x202f;" horiz-adv-x="359" />
<glyph unicode="&#x205f;" horiz-adv-x="449" />
<glyph unicode="&#x25fc;" horiz-adv-x="1413" d="M0 0v1413h1413v-1413h-1413z" />
</font>
</defs>
</svg>
